<svg width="1200" height="300" viewBox="0 0 1200 300" fill="none" xmlns="http://www.w3.org/2000/svg">
  <defs>
    <linearGradient id="bg" x1="0" y1="0" x2="1200" y2="300" gradientUnits="userSpaceOnUse">
      <stop stop-color="#FCF7EE"/>
      <stop offset="1" stop-color="#F3EBDD"/>
    </linearGradient>
    <marker id="arrow" markerWidth="14" markerHeight="14" refX="10" refY="7" orient="auto">
      <path d="M1 1L11 7L1 13" stroke="#8C4F2B" stroke-width="2.5" stroke-linecap="round" stroke-linejoin="round"/>
    </marker>
  </defs>
  <rect width="1200" height="300" rx="28" fill="url(#bg)"/>

  <g>
    <rect x="70" y="70" width="280" height="150" rx="24" fill="#FFFDF9" stroke="#D8D2C8" stroke-width="2"/>
    <circle cx="125" cy="125" r="28" fill="#F0E2D2"/>
    <path d="M125 108V142M108 125H142" stroke="#8C4F2B" stroke-width="4" stroke-linecap="round"/>
    <text x="168" y="136" fill="#1F2933" font-size="28" font-family="Noto Serif SC, Songti SC, serif" font-weight="700">需求上升</text>
    <text x="98" y="190" fill="#5B6470" font-size="18" font-family="Noto Serif SC, Songti SC, serif">城市徒步 / 轻户外 / 周末步行</text>
  </g>

  <g>
    <rect x="420" y="70" width="320" height="150" rx="24" fill="#FFFDF9" stroke="#D8D2C8" stroke-width="2"/>
    <circle cx="515" cy="125" r="28" fill="#F0E2D2"/>
    <path d="M500 112L530 138M530 112L500 138" stroke="#8C4F2B" stroke-width="4" stroke-linecap="round"/>
    <text x="558" y="136" fill="#1F2933" font-size="28" font-family="Noto Serif SC, Songti SC, serif" font-weight="700">信息断裂</text>
    <text x="448" y="190" fill="#5B6470" font-size="18" font-family="Noto Serif SC, Songti SC, serif">内容 / 地图 / 轨迹分散在不同工具</text>
  </g>

  <g>
    <rect x="800" y="70" width="330" height="150" rx="24" fill="#FFFDF9" stroke="#D8D2C8" stroke-width="2"/>
    <circle cx="905" cy="125" r="28" fill="#F0E2D2"/>
    <path d="M892 126L902 136L920 114" stroke="#8C4F2B" stroke-width="4" stroke-linecap="round" stroke-linejoin="round"/>
    <text x="948" y="136" fill="#1F2933" font-size="28" font-family="Noto Serif SC, Songti SC, serif" font-weight="700">能力成熟</text>
    <text x="828" y="190" fill="#5B6470" font-size="18" font-family="Noto Serif SC, Songti SC, serif">地图、GPX、内容生成已可落地</text>
  </g>

  <path d="M350 145H410" stroke="#8C4F2B" stroke-width="3" marker-end="url(#arrow)"/>
  <path d="M740 145H790" stroke="#8C4F2B" stroke-width="3" marker-end="url(#arrow)"/>
</svg>
